<svg width="512" height="512" viewBox="0 0 512 512" fill="none" xmlns="http://www.w3.org/2000/svg">
    <g clip-path="url(#clip0_526_2)">
        <rect width="512" height="512" fill="black"/>
        <path d="M239.824 393.656C215.931 393.656 193.915 387.512 173.776 375.224C153.637 362.595 137.595 345.699 125.648 324.536C114.043 303.373 108.24 280.163 108.24 254.904C108.24 229.645 114.043 206.435 125.648 185.272C137.595 163.768 153.637 146.701 173.776 134.072C193.915 121.443 215.931 115.128 239.824 115.128C261.669 115.128 279.248 119.224 292.56 127.416C306.213 135.608 316.795 147.384 324.304 162.744V120.76H392.912V387H325.84V343.48C317.989 359.523 307.237 371.981 293.584 380.856C280.272 389.389 262.352 393.656 239.824 393.656ZM177.36 254.392C177.36 268.045 180.432 280.845 186.576 292.792C193.061 304.397 201.765 313.784 212.688 320.952C223.952 327.779 236.752 331.192 251.088 331.192C265.765 331.192 278.736 327.779 290 320.952C301.605 314.125 310.48 304.909 316.624 293.304C322.768 281.699 325.84 268.899 325.84 254.904C325.84 240.909 322.768 228.109 316.624 216.504C310.48 204.557 301.605 195.171 290 188.344C278.736 181.176 265.765 177.592 251.088 177.592C236.752 177.592 223.952 181.176 212.688 188.344C201.424 195.171 192.72 204.387 186.576 215.992C180.432 227.597 177.36 240.397 177.36 254.392Z" fill="white"/>
    </g>
    <defs>
        <clipPath id="clip0_526_2">
            <rect width="512" height="512" fill="white"/>
        </clipPath>
    </defs>
</svg>
