<svg width="2500" height="800" viewBox="0 0 2500 800" fill="none" xmlns="http://www.w3.org/2000/svg">
    <rect width="2500" height="800" fill="black"/>
    <path d="M547.824 611.656C523.931 611.656 501.915 605.512 481.776 593.224C461.637 580.595 445.595 563.699 433.648 542.536C422.043 521.373 416.24 498.163 416.24 472.904C416.24 447.645 422.043 424.435 433.648 403.272C445.595 381.768 461.637 364.701 481.776 352.072C501.915 339.443 523.931 333.128 547.824 333.128C569.669 333.128 587.248 337.224 600.56 345.416C614.213 353.608 624.795 365.384 632.304 380.744V338.76H700.912V605H633.84V561.48C625.989 577.523 615.237 589.981 601.584 598.856C588.272 607.389 570.352 611.656 547.824 611.656ZM485.36 472.392C485.36 486.045 488.432 498.845 494.576 510.792C501.061 522.397 509.765 531.784 520.688 538.952C531.952 545.779 544.752 549.192 559.088 549.192C573.765 549.192 586.736 545.779 598 538.952C609.605 532.125 618.48 522.909 624.624 511.304C630.768 499.699 633.84 486.899 633.84 472.904C633.84 458.909 630.768 446.109 624.624 434.504C618.48 422.557 609.605 413.171 598 406.344C586.736 399.176 573.765 395.592 559.088 395.592C544.752 395.592 531.952 399.176 520.688 406.344C509.424 413.171 500.72 422.387 494.576 433.992C488.432 445.597 485.36 458.397 485.36 472.392ZM741.98 338.76H810.076V377.672C824.071 347.635 851.207 332.616 891.484 332.616C910.257 332.616 927.153 337.053 942.172 345.928C957.532 354.461 969.479 366.749 978.012 382.792C987.228 366.067 998.833 353.608 1012.83 345.416C1027.16 336.883 1045.6 332.616 1068.12 332.616C1087.24 332.616 1104.48 337.224 1119.84 346.44C1135.2 355.315 1147.31 368.115 1156.19 384.84C1165.06 401.224 1169.5 420.339 1169.5 442.184V605H1100.38V459.08C1100.38 436.893 1095.6 420.339 1086.04 409.416C1076.49 398.493 1063.52 393.032 1047.13 393.032C1029.72 393.032 1016.24 397.981 1006.68 407.88C997.468 417.779 992.86 434.845 992.86 459.08V605H923.74V459.08C923.74 436.893 918.62 420.339 908.38 409.416C898.14 398.493 884.145 393.032 866.396 393.032C850.695 393.032 837.553 398.664 826.972 409.928C816.391 420.851 811.1 437.235 811.1 459.08V605H741.98V338.76ZM1361.07 611.656C1338.54 611.656 1320.45 607.389 1306.8 598.856C1293.48 589.981 1282.9 577.523 1275.05 561.48V605H1207.98V231.24H1277.1V379.72C1284.61 364.701 1295.02 353.267 1308.33 345.416C1321.64 337.224 1339.22 333.128 1361.07 333.128C1384.96 333.128 1406.98 339.443 1427.12 352.072C1447.25 364.701 1463.13 381.768 1474.73 403.272C1486.68 424.435 1492.65 447.645 1492.65 472.904C1492.65 498.163 1486.68 521.373 1474.73 542.536C1463.13 563.699 1447.25 580.595 1427.12 593.224C1406.98 605.512 1384.96 611.656 1361.07 611.656ZM1275.05 472.904C1275.05 486.899 1278.12 499.699 1284.27 511.304C1290.41 522.909 1299.12 532.125 1310.38 538.952C1321.99 545.779 1335.13 549.192 1349.8 549.192C1364.14 549.192 1376.77 545.779 1387.69 538.952C1398.96 531.784 1407.66 522.397 1413.8 510.792C1420.29 498.845 1423.53 486.045 1423.53 472.392C1423.53 458.397 1420.46 445.597 1414.32 433.992C1408.17 422.387 1399.47 413.171 1388.2 406.344C1376.94 399.176 1364.14 395.592 1349.8 395.592C1335.13 395.592 1321.99 399.176 1310.38 406.344C1299.12 413.171 1290.41 422.557 1284.27 434.504C1278.12 446.109 1275.05 458.909 1275.05 472.904ZM1652.56 611.656C1625.6 611.656 1601.36 605.512 1579.86 593.224C1558.36 580.595 1541.46 563.699 1529.17 542.536C1516.88 521.032 1510.74 497.651 1510.74 472.392C1510.74 447.133 1516.88 423.752 1529.17 402.248C1541.46 380.744 1558.36 363.848 1579.86 351.56C1601.36 338.931 1625.6 332.616 1652.56 332.616C1679.53 332.616 1703.76 338.931 1725.27 351.56C1746.77 363.848 1763.67 380.744 1775.96 402.248C1788.24 423.752 1794.39 447.133 1794.39 472.392C1794.39 497.651 1788.24 521.032 1775.96 542.536C1763.67 563.699 1746.77 580.595 1725.27 593.224C1703.76 605.512 1679.53 611.656 1652.56 611.656ZM1579.86 472.392C1579.86 486.387 1582.76 499.187 1588.56 510.792C1594.71 522.397 1603.24 531.613 1614.16 538.44C1625.43 545.267 1638.23 548.68 1652.56 548.68C1666.9 548.68 1679.53 545.267 1690.45 538.44C1701.72 531.613 1710.25 522.397 1716.05 510.792C1722.2 499.187 1725.27 486.387 1725.27 472.392C1725.27 458.397 1722.2 445.597 1716.05 433.992C1709.91 422.387 1701.37 413.171 1690.45 406.344C1679.53 399.176 1666.9 395.592 1652.56 395.592C1638.23 395.592 1625.6 399.176 1614.68 406.344C1603.75 413.171 1595.22 422.387 1589.08 433.992C1582.93 445.597 1579.86 458.397 1579.86 472.392ZM1824.98 338.76H1893.08V377.672C1907.07 347.635 1934.21 332.616 1974.48 332.616C1993.6 332.616 2010.84 337.224 2026.2 346.44C2041.56 355.315 2053.67 368.115 2062.55 384.84C2071.42 401.224 2075.86 420.339 2075.86 442.184V605H2006.74V459.08C2006.74 436.893 2001.62 420.339 1991.38 409.416C1981.14 398.493 1967.15 393.032 1949.4 393.032C1933.69 393.032 1920.55 398.664 1909.97 409.928C1899.39 420.851 1894.1 437.235 1894.1 459.08V605H1824.98V338.76Z" fill="white"/>
</svg>
