<svg width="200" height="200" viewBox="0 0 200 200" fill="none" xmlns="http://www.w3.org/2000/svg">
<g clip-path="url(#clip0_9_2)">
<rect width="200" height="200" rx="25" fill="#05445E"/>
<line x1="188.64" y1="105.341" x2="148.607" y2="145.375" stroke="#D4F1F4" stroke-width="15" stroke-linecap="round"/>
<line x1="189.393" y1="104.64" x2="149.36" y2="64.6066" stroke="#D4F1F4" stroke-width="15" stroke-linecap="round"/>
<line x1="11.3596" y1="94.0338" x2="51.3934" y2="54" stroke="#D4F1F4" stroke-width="15" stroke-linecap="round"/>
<line x1="10.6066" y1="94.7345" x2="50.6404" y2="134.768" stroke="#D4F1F4" stroke-width="15" stroke-linecap="round"/>
<path d="M61.2027 193.777L58.0331 200.574L71.6277 206.913L74.7973 200.116L61.2027 193.777ZM138.19 64.1696C139.941 60.4156 138.316 55.9532 134.562 54.2027C130.808 52.4522 126.346 54.0763 124.595 57.8304L138.19 64.1696ZM74.7973 200.116L138.19 64.1696L124.595 57.8304L61.2027 193.777L74.7973 200.116Z" fill="#D4F1F4"/>
<path d="M61.2027 135.777C59.4521 139.531 61.0763 143.993 64.8304 145.743C68.5844 147.494 73.0468 145.87 74.7973 142.116L61.2027 135.777ZM138.19 6.16964L141.36 -0.627668L127.765 -6.96694L124.595 -0.169633L138.19 6.16964ZM74.7973 142.116L138.19 6.16964L124.595 -0.169633L61.2027 135.777L74.7973 142.116Z" fill="#D4F1F4"/>
</g>
<defs>
<clipPath id="clip0_9_2">
<rect width="200" height="200" rx="25" fill="white"/>
</clipPath>
</defs>
</svg>
